# xmcd CD database file
#
# Track frame offsets:
#	150
#	70725
#	132337
#
# Disc length: 1880 seconds
#
# Revision: 0
# Processed by: cddbd v1.4PL0 Copyright (c) Steve Scherf et al.
# Submitted via: CD2WAV32(EN) R3.19
#
DISCID=24075603
DTITLE=EVE - Fantastic Christmas!
DYEAR=1900
DGENRE=
TTITLE0=Hymnal Song Medley - For Silent Night -
TTITLE1=Christmas Song Medley - For Dance Party -
TTITLE2=White Christmas (A CAPPELLA)
EXTD=
EXTT0=
EXTT1=
EXTT2=
PLAYORDER=
